<svg width="36" height="42" viewBox="0 0 36 42" fill="none" xmlns="http://www.w3.org/2000/svg">
<path d="M0 24C0 33.94 8.06 42 18 42C18 32 9.94 24 0 24ZM18 9C20.76 9 23 11.24 23 14C23 16.76 20.76 19 18 19C15.24 19 13 16.76 13 14C13 11.24 15.24 9 18 9ZM5.2 18.5C5.2 21.26 7.44 23.5 10.2 23.5C11.26 23.5 12.24 23.16 13 22.62C13 22.74 13 22.86 13 23C13 25.76 15.24 28 18 28C20.76 28 23 25.76 23 23C23 22.86 23 22.74 23 22.62C23.76 23.16 24.74 23.5 25.8 23.5C28.56 23.5 30.8 21.26 30.8 18.5C30.8 16.5 29.62 14.8 27.94 14C29.62 13.2 30.8 11.48 30.8 9.5C30.8 6.74 28.56 4.5 25.8 4.5C24.74 4.5 23.76 4.82 23 5.38C23 5.26 23 5.12 23 5C23 2.24 20.76 0 18 0C15.24 0 13 2.24 13 5C13 5.12 13 5.26 13 5.38C12.24 4.82 11.26 4.5 10.2 4.5C7.44 4.5 5.2 6.74 5.2 9.5C5.2 11.48 6.38 13.2 8.06 14C6.38 14.8 5.2 16.5 5.2 18.5ZM18 42C27.94 42 36 33.94 36 24C26 24 18 32 18 42Z" fill="white"/>
</svg>
